<svg xmlns="http://www.w3.org/2000/svg" viewBox="0 0 600 270" role="img" aria-labelledby="title"><title id="title">Mapa dos lobos em vista lateral, anterior à esquerda</title><g font-family="Avenir Next, Segoe UI, sans-serif"><text x="25" y="28" fill="#183648" font-size="17">Anterior (testa)</text><text x="420" y="28" fill="#183648" font-size="17">Posterior</text><path d="M65 155C24 70 145 45 227 52L253 123L189 153Z" fill="#dceaf1" stroke="#183648" stroke-width="2" stroke-linejoin="round"/><path d="M227 52C300 36 372 55 414 88L390 146L253 123Z" fill="#b9d8cc" stroke="#183648" stroke-width="2" stroke-linejoin="round"/><path d="M414 88C484 101 491 155 438 185L390 146Z" fill="#eac9b9" stroke="#183648" stroke-width="2" stroke-linejoin="round"/><path d="M189 153L253 123L390 146L438 185C323 231 184 230 120 186Z" fill="#c7c4e2" stroke="#183648" stroke-width="2" stroke-linejoin="round"/><text x="76" y="121" fill="#183648" font-size="17">Frontal</text><text x="273" y="101" fill="#183648" font-size="17">Parietal</text><text x="208" y="192" fill="#183648" font-size="17">Temporal</text><text x="480" y="170" fill="#ac4f21" font-size="16">Occipital</text><path d="M449 147L477 160" stroke="#183648" stroke-width="2" fill="none" stroke-dasharray=""/><text x="30" y="255" fill="#183648" font-size="15">Mapa simplificado: ínsula fica profunda ao sulco lateral.</text></g></svg>